<svg xmlns="http://www.w3.org/2000/svg" viewBox="0 0 1200 760"><defs><linearGradient id="g" x1="0" x2="1" y1="0" y2="1"><stop stop-color="#07192f"/><stop offset="1" stop-color="#0d3761"/></linearGradient><filter id="s"><feDropShadow dx="0" dy="16" stdDeviation="20" flood-opacity=".2"/></filter></defs><rect width="1200" height="760" fill="url(#g)"/><circle cx="1020" cy="105" r="190" fill="#16c1b2" opacity=".08"/><circle cx="120" cy="690" r="230" fill="#3488ff" opacity=".08"/><g filter="url(#s)"><rect x="140" y="110" width="720" height="500" rx="28" fill="#f7fbff"/><rect x="140" y="110" width="720" height="64" rx="28" fill="#eaf2fb"/><circle cx="180" cy="142" r="9" fill="#fb6b6b"/><circle cx="210" cy="142" r="9" fill="#f8c34e"/><circle cx="240" cy="142" r="9" fill="#4cc38a"/><text x="505" y="151" text-anchor="middle" font-family="Arial" font-size="19" font-weight="700" fill="#174163">Verificador de Bingo</text><g font-family="Arial" font-size="22" font-weight="700" text-anchor="middle"><g fill="#0d3761"><text x="245" y="230">B</text><text x="355" y="230">I</text><text x="465" y="230">N</text><text x="575" y="230">G</text><text x="685" y="230">O</text></g><g fill="#fff" stroke="#cbd9e7" stroke-width="2"><rect x="195" y="250" width="100" height="72" rx="12"/><rect x="305" y="250" width="100" height="72" rx="12"/><rect x="415" y="250" width="100" height="72" rx="12"/><rect x="525" y="250" width="100" height="72" rx="12"/><rect x="635" y="250" width="100" height="72" rx="12"/><rect x="195" y="332" width="100" height="72" rx="12"/><rect x="305" y="332" width="100" height="72" rx="12"/><rect x="415" y="332" width="100" height="72" rx="12"/><rect x="525" y="332" width="100" height="72" rx="12"/><rect x="635" y="332" width="100" height="72" rx="12"/><rect x="195" y="414" width="100" height="72" rx="12"/><rect x="305" y="414" width="100" height="72" rx="12"/><rect x="415" y="414" width="100" height="72" rx="12" fill="#d9fbf6" stroke="#57cbbb"/><rect x="525" y="414" width="100" height="72" rx="12"/><rect x="635" y="414" width="100" height="72" rx="12"/></g><g fill="#234f73"><text x="245" y="295">12</text><text x="355" y="295">24</text><text x="465" y="295">34</text><text x="575" y="295">51</text><text x="685" y="295">69</text><text x="245" y="377">3</text><text x="355" y="377">28</text><text x="465" y="377">40</text><text x="575" y="377">58</text><text x="685" y="377">73</text><text x="245" y="459">8</text><text x="355" y="459">19</text><text x="465" y="459" font-size="16">FREE</text><text x="575" y="459">47</text><text x="685" y="459">65</text></g></g><rect x="195" y="520" width="300" height="46" rx="23" fill="#0e806f"/><text x="345" y="550" text-anchor="middle" font-family="Arial" font-size="18" font-weight="700" fill="#fff">✓ CARTÓN VERIFICADO</text></g><g filter="url(#s)"><rect x="790" y="285" width="270" height="250" rx="28" fill="#0f2945" stroke="#2d668f"/><circle cx="925" cy="360" r="52" fill="#12b8a7"/><path d="M900 360l17 18 36-42" fill="none" stroke="#fff" stroke-width="12" stroke-linecap="round" stroke-linejoin="round"/><text x="925" y="445" text-anchor="middle" font-family="Arial" font-size="20" font-weight="700" fill="#fff">Acceso activo</text><text x="925" y="478" text-anchor="middle" font-family="Arial" font-size="15" fill="#b8cce0">Correo + vigencia</text></g></svg>